<svg xmlns="http://www.w3.org/2000/svg" viewBox="0 0 676.5 270.8"><defs><style>.cls-1{isolation:isolate;}.cls-2,.cls-3{mix-blend-mode:multiply;}</style></defs><g class="cls-1"><g id="Calque_1" data-name="Calque 1"><g class="cls-2"><path d="M312.88,153.2q16.49,0,26,8.47t9.52,22.18q0,13.78-9.52,22.15t-26,8.37H296.67v21.29l10.28,2v11.54H267.2V237.64l10.22-2V166.78l-10.22-2V153.2h45.68Zm-16.21,46.34h16.21q8,0,12.16-4.38A15.67,15.67,0,0,0,329.16,184,16.33,16.33,0,0,0,325,172.54Q320.93,168,312.88,168H296.67Z" transform="translate(-82.81 -80.49)"/><path d="M433.19,185.56H418.88l-2-12.78a20.12,20.12,0,0,0-7.16-4.49,28.48,28.48,0,0,0-10.18-1.65q-12.52,0-19.28,9.1t-6.76,23.73v3.37q0,14.63,6.72,23.79t19,9.17a31.22,31.22,0,0,0,10.38-1.65,17.51,17.51,0,0,0,7.29-4.48l2-12.79h14.31v19a41.22,41.22,0,0,1-14.8,10.71,49.16,49.16,0,0,1-20.14,4q-19.32,0-31.64-13.38t-12.33-34.34v-3.23q0-20.91,12.26-34.35t31.71-13.45a48.17,48.17,0,0,1,20.11,4.06,43.09,43.09,0,0,1,14.83,10.71Z" transform="translate(-82.81 -80.49)"/><path d="M529.76,201.91q0,21.1-12.06,34.87t-31.58,13.78q-19.44,0-31.41-13.78t-12-34.87v-1.45q0-21,11.93-34.8t31.38-13.85q19.51,0,31.61,13.85t12.09,34.8Zm-19.18-1.58q0-14.9-6.2-24.19t-18.32-9.3q-12.13,0-18.1,9.23t-6,24.26v1.58q0,15.17,6,24.43t18.09,9.26q12.19,0,18.33-9.26t6.13-24.43Z" transform="translate(-82.81 -80.49)"/><path d="M632.53,207H600v27.42h31l.85-11.47h14.64v26.24H570.57V237.64l10.22-2V166.78l-10.22-2V153.2h75.81v26.3H631.61L630.75,168H600v24.13h32.5Z" transform="translate(-82.81 -80.49)"/><path d="M702.48,153.2q16.47,0,26,8.47T738,183.85q0,13.78-9.53,22.15t-26,8.37H686.26v21.29l10.28,2v11.54H656.79V237.64l10.22-2V166.78l-10.22-2V153.2h45.69Zm-16.22,46.34h16.22q8,0,12.16-4.38A15.72,15.72,0,0,0,718.76,184a16.38,16.38,0,0,0-4.12-11.44Q710.52,168,702.48,168H686.26Z" transform="translate(-82.81 -80.49)"/><path class="cls-3" d="M251.6,175.09s.05,1.18.14,3.4a81.2,81.2,0,0,1-.42,9.66A78.61,78.61,0,0,1,248.24,203a81.29,81.29,0,0,1-8.27,18,85.61,85.61,0,0,1-6.7,9.23,83.89,83.89,0,0,1-8.56,8.77,81.41,81.41,0,0,1-22.54,14,80.43,80.43,0,0,1-27.91,6.16,83,83,0,0,1-74.51-39.85A79.94,79.94,0,0,1,90,194.21c-.47-2.09-.74-4.19-1-6.24s-.45-4.09-.49-6.1a77.11,77.11,0,0,1,.31-11.56,78.1,78.1,0,0,1,4.59-19.51,71.74,71.74,0,0,1,6.89-13.64,68.3,68.3,0,0,1,5.83-7.79c.74-.83,1.31-1.47,1.69-1.91s.62-.62.62-.62l1,.74-.44.75c-.28.49-.69,1.22-1.22,2.18-1.06,1.9-2.5,4.76-4.09,8.44a82.16,82.16,0,0,0-6,42.18c.17,1.78.53,3.57.81,5.38s.74,3.64,1.26,5.45a77.87,77.87,0,0,0,26,40.46A75.12,75.12,0,0,0,174,249.2,79,79,0,0,0,186.79,248a77,77,0,0,0,33.12-14.84,86.4,86.4,0,0,0,8.33-7.49,84.4,84.4,0,0,0,6.8-8,81.78,81.78,0,0,0,9.14-16.13,76.23,76.23,0,0,0,4.37-13.79,80.3,80.3,0,0,0,1.51-9.27c.2-2.17.31-3.33.31-3.33Z" transform="translate(-82.81 -80.49)"/><path class="cls-3" d="M109.22,222.69l-.53-.68-1.46-2A77.58,77.58,0,0,1,96.46,198.4a77.82,77.82,0,0,1-3.4-29.72c.09-1.9.4-3.8.62-5.74s.64-3.9,1.13-5.85a79.11,79.11,0,0,1,105.84-56A79.62,79.62,0,0,1,222.43,114a80.85,80.85,0,0,1,8.42,8.19,84.92,84.92,0,0,1,6.69,8.69A81.24,81.24,0,0,1,246.12,148a77.5,77.5,0,0,1,3.54,14.31,83,83,0,0,1,.84,9.44c0,2.18,0,3.35,0,3.35h-.92s0-1.15-.14-3.31a79.53,79.53,0,0,0-1.07-9.28,76.4,76.4,0,0,0-3.82-13.95A79.72,79.72,0,0,0,236,132,79.85,79.85,0,0,0,221,115.68a77.2,77.2,0,0,0-21.22-12.39,76.25,76.25,0,0,0-25.74-5.19,76.75,76.75,0,0,0-50.6,17A79.25,79.25,0,0,0,106,134.75a77.22,77.22,0,0,0-9.45,22.75c-.49,1.91-.79,3.83-1.14,5.7s-.56,3.76-.67,5.61a78.8,78.8,0,0,0,3,29.19,74.7,74.7,0,0,0,5.47,13.42,78.44,78.44,0,0,0,4.8,8l1.41,2,.51.67Z" transform="translate(-82.81 -80.49)"/><path class="cls-3" d="M244.92,175.51s.09.66.27,1.9.31,3.09.48,5.46c0,1.18,0,2.5,0,3.94s-.07,3-.26,4.67a67.94,67.94,0,0,1-2,11.19,70.08,70.08,0,0,1-4.73,12.85,73.08,73.08,0,0,1-8.19,13.22,76.31,76.31,0,0,1-11.82,12.13,78.12,78.12,0,0,1-49.38,17.7,73.12,73.12,0,0,1-16.54-1.92,71,71,0,0,1-14.19-4.9,68.31,68.31,0,0,1-18.48-12.67,54.55,54.55,0,0,1-4.29-4.62c-.93-1.11-1.4-1.73-1.4-1.73l.71-1s.65.36,1.81,1.07,2.9,1.7,5.06,2.94a101.88,101.88,0,0,0,18.67,8,91.34,91.34,0,0,0,12.84,3,86.93,86.93,0,0,0,14.46,1,80.65,80.65,0,0,0,15.26-1.6,75.56,75.56,0,0,0,14.95-4.75,74.06,74.06,0,0,0,13.57-7.68,76.27,76.27,0,0,0,25.83-32.32,71.57,71.57,0,0,0,3.48-10.18,70.26,70.26,0,0,0,1.76-8.18c.34-2.31.61-4.13.68-5.39s.18-1.92.18-1.92Z" transform="translate(-82.81 -80.49)"/><path class="cls-3" d="M147.33,120.68l-.58.29c-.39.18-1,.47-1.69.89s-1.65.87-2.68,1.53-2.2,1.38-3.49,2.26a61.09,61.09,0,0,0-8.61,7.2,63.36,63.36,0,0,0-9,11.38,62.33,62.33,0,0,0-6.87,15.71,68.82,68.82,0,0,0-1.81,9.25,63.51,63.51,0,0,0-.36,9.9A61.61,61.61,0,0,0,128,217.75a63.8,63.8,0,0,0,17.3,13.61,65.68,65.68,0,0,0,20.57,6.83,66.52,66.52,0,0,0,10.57.84,65.06,65.06,0,0,0,10.24-.73,63.84,63.84,0,0,0,9.6-2.11A67.27,67.27,0,0,0,205,233a76,76,0,0,0,24.3-17.31c1.32-1.33,2.35-2.64,3.35-3.74L235,209c1.2-1.65,1.88-2.53,1.88-2.53L238,207s-.4,1-1.23,2.92c-.42.94-1,2.08-1.67,3.44s-1.54,2.86-2.62,4.47a66.63,66.63,0,0,1-8.77,11,68.48,68.48,0,0,1-14.46,11.25,70.22,70.22,0,0,1-32,9.46,71.14,71.14,0,0,1-56.9-24.23,68.88,68.88,0,0,1-13-21.83,66.85,66.85,0,0,1-4.15-23.69A65.65,65.65,0,0,1,107,158.12a65.91,65.91,0,0,1,4.07-9.15,71,71,0,0,1,5-7.8,63.76,63.76,0,0,1,11.09-11.38,65.26,65.26,0,0,1,10.11-6.48c1.49-.71,2.8-1.34,4-1.8s2.18-.85,3-1.15,1.45-.5,1.88-.61l.65-.19Z" transform="translate(-82.81 -80.49)"/><path class="cls-3" d="M218.34,93.81l-1.15-.48c-.74-.33-1.89-.73-3.38-1.27a87.29,87.29,0,0,0-13.06-3.66,88.86,88.86,0,0,0-20.56-1.89,90.44,90.44,0,0,0-25.66,4.24,86.75,86.75,0,0,0-26.37,13.89,83,83,0,0,0-21,24.13A78.81,78.81,0,0,0,97,160.11a77,77,0,0,0,3.75,32.47,72.59,72.59,0,0,0,16.44,26.82,71.78,71.78,0,0,0,24.42,16.45,69.83,69.83,0,0,0,26.34,5.23A69.12,69.12,0,0,0,201.06,233a65.71,65.71,0,0,0,8.12-5,72.25,72.25,0,0,0,11.63-10.4,80.86,80.86,0,0,0,6.31-8c1.29-2,2-3,2-3l1.71.27a7.67,7.67,0,0,1-.22.86l-.75,2.5a59.23,59.23,0,0,1-4,9.27,63.34,63.34,0,0,1-9.5,13.23,64.13,64.13,0,0,1-7.64,7,65.45,65.45,0,0,1-9.84,6.47,71.92,71.92,0,0,1-26.09,8.22,76.89,76.89,0,0,1-31.81-3,80.3,80.3,0,0,1-16-7,83.22,83.22,0,0,1-14.68-10.82,84.44,84.44,0,0,1-21.43-31.2,87.28,87.28,0,0,1-5.82-38.52A88.23,88.23,0,0,1,94.3,126.75,91.28,91.28,0,0,1,149,83.91a93.47,93.47,0,0,1,28.78-3.34,95.85,95.85,0,0,1,22.32,3.68,97.75,97.75,0,0,1,13.69,5.3l3.46,1.76,1.16.66Z" transform="translate(-82.81 -80.49)"/><path d="M269.65,287.77q0-7,3.9-11a13.46,13.46,0,0,1,10.05-4,14.33,14.33,0,0,1,7.27,1.86,12.3,12.3,0,0,1,4.94,5.19,16.38,16.38,0,0,1,1.7,7.54,16,16,0,0,1-1.79,7.66,11.92,11.92,0,0,1-5.06,5.1,14.9,14.9,0,0,1-7.08,1.74,14.14,14.14,0,0,1-7.35-1.92,12.44,12.44,0,0,1-4.91-5.23A15.44,15.44,0,0,1,269.65,287.77Zm4,.06a11,11,0,0,0,2.84,8,10.1,10.1,0,0,0,14.26,0c1.88-2,2.82-4.76,2.82-8.37a13.8,13.8,0,0,0-1.21-6,9,9,0,0,0-3.51-4,9.82,9.82,0,0,0-5.2-1.41,10,10,0,0,0-7,2.71Q273.63,281.49,273.62,287.83Z" transform="translate(-82.81 -80.49)"/><path d="M302,309.27V281.1h3.26v2.65a7.87,7.87,0,0,1,2.6-2.33,7.35,7.35,0,0,1,3.52-.78,8.61,8.61,0,0,1,4.77,1.34,8.3,8.3,0,0,1,3.12,3.79,13.42,13.42,0,0,1,1,5.36,13.08,13.08,0,0,1-1.16,5.62,8.52,8.52,0,0,1-3.38,3.84,8.87,8.87,0,0,1-4.66,1.33,6.9,6.9,0,0,1-3.21-.73,7.26,7.26,0,0,1-2.33-1.84v9.92Zm3.24-17.87q0,3.93,1.65,5.8a5.1,5.1,0,0,0,4,1.88,5.28,5.28,0,0,0,4.09-1.94q1.69-2,1.7-6c0-2.6-.56-4.54-1.66-5.83a5.08,5.08,0,0,0-4-1.94,5.22,5.22,0,0,0-4,2.06A9,9,0,0,0,305.26,291.4Z" transform="translate(-82.81 -80.49)"/><path d="M339.1,294.9l3.7.44a8.65,8.65,0,0,1-3.24,4.86,10,10,0,0,1-6,1.72,9.83,9.83,0,0,1-7.34-2.75c-1.81-1.83-2.71-4.41-2.71-7.72s.91-6.08,2.74-8a9.45,9.45,0,0,1,7.11-2.84,9.21,9.21,0,0,1,6.92,2.78c1.78,1.85,2.68,4.46,2.68,7.82,0,.21,0,.51,0,.92H327.16a7.65,7.65,0,0,0,2,5.14,6,6,0,0,0,4.41,1.78,5.65,5.65,0,0,0,3.36-1A6.61,6.61,0,0,0,339.1,294.9Zm-11.74-5.57h11.78a6.71,6.71,0,0,0-1.35-3.86,5.55,5.55,0,0,0-4.43-2,5.79,5.79,0,0,0-4.14,1.59A6.2,6.2,0,0,0,327.36,289.33Zm3.85-10.76,2.65-5.37h4.69l-4.37,5.37Z" transform="translate(-82.81 -80.49)"/><path d="M347.25,301.46V281.1h3.22v3.09a8.37,8.37,0,0,1,2.28-2.86,4.06,4.06,0,0,1,2.29-.69,7.18,7.18,0,0,1,3.68,1.11l-1.23,3.2a5.25,5.25,0,0,0-2.63-.74,3.43,3.43,0,0,0-2.1.68,3.6,3.6,0,0,0-1.33,1.88,13,13,0,0,0-.6,4v10.66Z" transform="translate(-82.81 -80.49)"/><path d="M374.62,299a13.55,13.55,0,0,1-3.83,2.3,11.38,11.38,0,0,1-4,.67,7.81,7.81,0,0,1-5.34-1.64,5.34,5.34,0,0,1-1.87-4.19,5.42,5.42,0,0,1,.71-2.73,5.65,5.65,0,0,1,1.84-2,8.72,8.72,0,0,1,2.58-1.13,24.8,24.8,0,0,1,3.18-.52,33.62,33.62,0,0,0,6.38-1.19c0-.47,0-.77,0-.9a3.73,3.73,0,0,0-1-3,6.17,6.17,0,0,0-4.08-1.17,6.51,6.51,0,0,0-3.73.85,5.2,5.2,0,0,0-1.78,3l-3.49-.46a8.21,8.21,0,0,1,1.57-3.5,6.88,6.88,0,0,1,3.16-2.05,14.54,14.54,0,0,1,4.79-.72,13.1,13.1,0,0,1,4.39.61,5.78,5.78,0,0,1,2.48,1.55,5.44,5.44,0,0,1,1.12,2.34,20.2,20.2,0,0,1,.17,3.19v4.6a47.52,47.52,0,0,0,.23,6.09,7.45,7.45,0,0,0,.91,2.44h-3.74A7,7,0,0,1,374.62,299Zm-.3-7.71a27.28,27.28,0,0,1-5.84,1.31,13.2,13.2,0,0,0-3.12.69,3.13,3.13,0,0,0-1.42,1.12,2.87,2.87,0,0,0-.49,1.64,2.91,2.91,0,0,0,1.08,2.3,4.79,4.79,0,0,0,3.17.92,7.64,7.64,0,0,0,3.68-.87,5.5,5.5,0,0,0,2.36-2.39,8,8,0,0,0,.58-3.45Z" transform="translate(-82.81 -80.49)"/><path d="M391.29,298.38l.52,3a13.4,13.4,0,0,1-2.71.31,6.39,6.39,0,0,1-3-.59,3.41,3.41,0,0,1-1.51-1.57,12,12,0,0,1-.43-4.07V283.78h-2.63V281.1h2.63v-5l3.55-2.07v7.11h3.6v2.68h-3.6v11.91a6,6,0,0,0,.19,1.9,1.48,1.48,0,0,0,.62.67,2.39,2.39,0,0,0,1.22.25A13.8,13.8,0,0,0,391.29,298.38Z" transform="translate(-82.81 -80.49)"/><path d="M409.23,294.9l3.7.44a8.65,8.65,0,0,1-3.24,4.86,10,10,0,0,1-6,1.72,9.83,9.83,0,0,1-7.34-2.75c-1.81-1.83-2.71-4.41-2.71-7.72s.91-6.08,2.73-8a9.48,9.48,0,0,1,7.12-2.84,9.21,9.21,0,0,1,6.92,2.78c1.78,1.85,2.68,4.46,2.68,7.82,0,.21,0,.51,0,.92H397.29a7.65,7.65,0,0,0,2,5.14,6,6,0,0,0,4.41,1.78,5.65,5.65,0,0,0,3.36-1A6.61,6.61,0,0,0,409.23,294.9Zm-11.74-5.57h11.78a6.78,6.78,0,0,0-1.35-3.86,5.56,5.56,0,0,0-4.43-2,5.79,5.79,0,0,0-4.14,1.59A6.2,6.2,0,0,0,397.49,289.33Z" transform="translate(-82.81 -80.49)"/><path d="M431.25,301.46v-3a7.79,7.79,0,0,1-6.69,3.45,8.8,8.8,0,0,1-3.49-.69,5.84,5.84,0,0,1-2.41-1.73,6.42,6.42,0,0,1-1.1-2.56,16.62,16.62,0,0,1-.22-3.22V281.1h3.58v11.29a19,19,0,0,0,.22,3.64,3.54,3.54,0,0,0,1.43,2.14,4.53,4.53,0,0,0,2.7.78,6.07,6.07,0,0,0,3-.8,4.49,4.49,0,0,0,2-2.16,10.55,10.55,0,0,0,.59-4V281.1h3.57v20.36Z" transform="translate(-82.81 -80.49)"/><path d="M440,301.46V281.1h3.22v3.09a8.49,8.49,0,0,1,2.27-2.86,4.09,4.09,0,0,1,2.3-.69,7.15,7.15,0,0,1,3.67,1.11l-1.23,3.2a5.22,5.22,0,0,0-2.62-.74,3.48,3.48,0,0,0-2.11.68,3.65,3.65,0,0,0-1.33,1.88,13,13,0,0,0-.6,4v10.66Z" transform="translate(-82.81 -80.49)"/><path d="M478.61,301.46v-2.57a6.63,6.63,0,0,1-5.9,3,8.51,8.51,0,0,1-4.64-1.34,8.89,8.89,0,0,1-3.28-3.75,12.49,12.49,0,0,1-1.17-5.53,14.05,14.05,0,0,1,1.06-5.53,8,8,0,0,1,3.16-3.81,8.67,8.67,0,0,1,4.71-1.32,7.25,7.25,0,0,1,3.4.78,7,7,0,0,1,2.42,2V273.35h3.56v28.11ZM467.3,291.3q0,3.92,1.71,5.85a5.23,5.23,0,0,0,4,1.93,5.11,5.11,0,0,0,4-1.85q1.64-1.85,1.64-5.64,0-4.18-1.67-6.14a5.2,5.2,0,0,0-4.11-1.95,5,5,0,0,0-4,1.87C467.84,286.63,467.3,288.6,467.3,291.3Z" transform="translate(-82.81 -80.49)"/><path d="M502,294.9l3.69.44a8.65,8.65,0,0,1-3.24,4.86,11.3,11.3,0,0,1-13.38-1c-1.81-1.83-2.71-4.41-2.71-7.72s.91-6.08,2.74-8a9.47,9.47,0,0,1,7.12-2.84,9.19,9.19,0,0,1,6.91,2.78q2.69,2.77,2.68,7.82c0,.21,0,.51,0,.92H490.05a7.7,7.7,0,0,0,2,5.14,6,6,0,0,0,4.41,1.78,5.61,5.61,0,0,0,3.36-1A6.68,6.68,0,0,0,502,294.9Zm-11.75-5.57H502a6.78,6.78,0,0,0-1.35-3.86,5.57,5.57,0,0,0-4.44-2,5.79,5.79,0,0,0-4.14,1.59A6.2,6.2,0,0,0,490.25,289.33Z" transform="translate(-82.81 -80.49)"/><path d="M535.27,294l3.51.44a8.45,8.45,0,0,1-8.78,7.48,9.25,9.25,0,0,1-7-2.73q-2.62-2.73-2.63-7.83a13.78,13.78,0,0,1,1.13-5.77,7.74,7.74,0,0,1,3.45-3.71,10.45,10.45,0,0,1,5-1.24,9,9,0,0,1,5.62,1.68,7.61,7.61,0,0,1,2.8,4.76l-3.47.52a5.58,5.58,0,0,0-1.76-3.09,4.65,4.65,0,0,0-3.05-1,5.62,5.62,0,0,0-4.39,1.87q-1.69,1.86-1.69,5.91t1.63,6a5.37,5.37,0,0,0,4.25,1.86,5.15,5.15,0,0,0,3.52-1.24A6.14,6.14,0,0,0,535.27,294Z" transform="translate(-82.81 -80.49)"/><path d="M540.51,291.28q0-5.65,3.26-8.38a10,10,0,0,1,6.64-2.26,9.66,9.66,0,0,1,7.11,2.75,10.25,10.25,0,0,1,2.77,7.6,13,13,0,0,1-1.23,6.19,8.52,8.52,0,0,1-3.56,3.5,10.62,10.62,0,0,1-5.09,1.24,9.66,9.66,0,0,1-7.17-2.74Q540.51,296.44,540.51,291.28Zm3.68,0q0,3.92,1.77,5.86a6,6,0,0,0,8.88,0c1.18-1.31,1.77-3.29,1.77-6a8.26,8.26,0,0,0-1.78-5.73,6,6,0,0,0-8.87,0Q544.19,287.37,544.19,291.28Z" transform="translate(-82.81 -80.49)"/><path d="M564.48,301.46V281.1h3.2V284a7.39,7.39,0,0,1,2.64-2.41,7.61,7.61,0,0,1,3.76-.91,7.09,7.09,0,0,1,3.84.94,5.06,5.06,0,0,1,2.12,2.63,7.64,7.64,0,0,1,6.52-3.57,6.53,6.53,0,0,1,4.82,1.68q1.7,1.68,1.69,5.16v14h-3.55V288.64a9.2,9.2,0,0,0-.35-3,2.91,2.91,0,0,0-1.26-1.46,4.08,4.08,0,0,0-2.15-.56,5.09,5.09,0,0,0-3.69,1.43c-1,.95-1.47,2.48-1.47,4.57v11.83H577V288.23a5.62,5.62,0,0,0-.88-3.45,3.34,3.34,0,0,0-2.86-1.15,5.35,5.35,0,0,0-2.79.77,4.39,4.39,0,0,0-1.86,2.24,12.36,12.36,0,0,0-.57,4.26v10.56Z" transform="translate(-82.81 -80.49)"/><path d="M598.38,309.27V281.1h3.26v2.65a7.87,7.87,0,0,1,2.6-2.33,7.35,7.35,0,0,1,3.52-.78,8.61,8.61,0,0,1,4.77,1.34,8.3,8.3,0,0,1,3.12,3.79,13.42,13.42,0,0,1,1.05,5.36,13.08,13.08,0,0,1-1.16,5.62,8.52,8.52,0,0,1-3.38,3.84,8.89,8.89,0,0,1-4.66,1.33,6.9,6.9,0,0,1-3.21-.73,7.26,7.26,0,0,1-2.33-1.84v9.92Zm3.24-17.87q0,3.93,1.65,5.8a5.1,5.1,0,0,0,4,1.88,5.28,5.28,0,0,0,4.09-1.94q1.7-2,1.7-6c0-2.6-.56-4.54-1.66-5.83a5.08,5.08,0,0,0-4-1.94,5.22,5.22,0,0,0-4,2.06A9,9,0,0,0,601.62,291.4Z" transform="translate(-82.81 -80.49)"/><path d="M635.46,294.9l3.7.44a8.75,8.75,0,0,1-3.24,4.86,10,10,0,0,1-6,1.72,9.83,9.83,0,0,1-7.34-2.75c-1.81-1.83-2.72-4.41-2.72-7.72s.92-6.08,2.74-8a9.47,9.47,0,0,1,7.12-2.84,9.21,9.21,0,0,1,6.92,2.78c1.78,1.85,2.68,4.46,2.68,7.82,0,.21,0,.51,0,.92H623.52a7.65,7.65,0,0,0,2,5.14,6,6,0,0,0,4.41,1.78,5.65,5.65,0,0,0,3.36-1A6.67,6.67,0,0,0,635.46,294.9Zm-11.74-5.57H635.5a6.78,6.78,0,0,0-1.35-3.86,5.56,5.56,0,0,0-4.43-2,5.78,5.78,0,0,0-4.14,1.59A6.2,6.2,0,0,0,623.72,289.33Zm3.85-10.76,2.65-5.37h4.69l-4.38,5.37Z" transform="translate(-82.81 -80.49)"/><path d="M651.46,298.38l.52,3a13.4,13.4,0,0,1-2.71.31,6.42,6.42,0,0,1-3-.59,3.41,3.41,0,0,1-1.51-1.57,12,12,0,0,1-.43-4.07V283.78h-2.63V281.1h2.63v-5l3.55-2.07v7.11h3.6v2.68h-3.6v11.91a6,6,0,0,0,.19,1.9,1.48,1.48,0,0,0,.62.67,2.39,2.39,0,0,0,1.22.25A13.8,13.8,0,0,0,651.46,298.38Z" transform="translate(-82.81 -80.49)"/><path d="M669.4,294.9l3.7.44a8.65,8.65,0,0,1-3.24,4.86,10,10,0,0,1-6,1.72,9.83,9.83,0,0,1-7.34-2.75c-1.81-1.83-2.71-4.41-2.71-7.72s.91-6.08,2.74-8a9.45,9.45,0,0,1,7.11-2.84,9.21,9.21,0,0,1,6.92,2.78c1.78,1.85,2.68,4.46,2.68,7.82,0,.21,0,.51,0,.92H657.46a7.65,7.65,0,0,0,2,5.14,6,6,0,0,0,4.41,1.78,5.65,5.65,0,0,0,3.36-1A6.61,6.61,0,0,0,669.4,294.9Zm-11.74-5.57h11.78a6.71,6.71,0,0,0-1.35-3.86,5.55,5.55,0,0,0-4.43-2,5.79,5.79,0,0,0-4.14,1.59A6.2,6.2,0,0,0,657.66,289.33Z" transform="translate(-82.81 -80.49)"/><path d="M677.59,301.46V281.1h3.22V284a7.68,7.68,0,0,1,6.72-3.35,9.14,9.14,0,0,1,3.51.66,5.49,5.49,0,0,1,2.39,1.74,6.43,6.43,0,0,1,1.11,2.55,18.24,18.24,0,0,1,.2,3.35v12.52h-3.57V289.08a9,9,0,0,0-.42-3.16,3.36,3.36,0,0,0-1.48-1.67,4.9,4.9,0,0,0-2.5-.62,5.94,5.94,0,0,0-3.94,1.4q-1.67,1.39-1.66,5.31v11.12Z" transform="translate(-82.81 -80.49)"/><path d="M714,294l3.52.44a8.45,8.45,0,0,1-8.79,7.48,9.21,9.21,0,0,1-7-2.73q-2.64-2.73-2.64-7.83a13.63,13.63,0,0,1,1.14-5.77,7.65,7.65,0,0,1,3.45-3.71,10.44,10.44,0,0,1,5-1.24,9,9,0,0,1,5.63,1.68,7.61,7.61,0,0,1,2.8,4.76l-3.48.52a5.53,5.53,0,0,0-1.76-3.09,4.63,4.63,0,0,0-3.05-1,5.64,5.64,0,0,0-4.39,1.87c-1.12,1.24-1.69,3.21-1.69,5.91s.54,4.73,1.63,6a5.38,5.38,0,0,0,4.25,1.86,5.12,5.12,0,0,0,3.52-1.24A6.09,6.09,0,0,0,714,294Z" transform="translate(-82.81 -80.49)"/><path d="M735,294.9l3.7.44a8.65,8.65,0,0,1-3.24,4.86,10,10,0,0,1-6,1.72,9.85,9.85,0,0,1-7.34-2.75c-1.81-1.83-2.71-4.41-2.71-7.72s.91-6.08,2.74-8a9.46,9.46,0,0,1,7.11-2.84,9.21,9.21,0,0,1,6.92,2.78q2.69,2.77,2.68,7.82c0,.21,0,.51,0,.92H723.08a7.65,7.65,0,0,0,2,5.14,6,6,0,0,0,4.41,1.78,5.65,5.65,0,0,0,3.36-1A6.61,6.61,0,0,0,735,294.9Zm-11.74-5.57h11.78a6.64,6.64,0,0,0-1.35-3.86,5.55,5.55,0,0,0-4.43-2,5.79,5.79,0,0,0-4.14,1.59A6.2,6.2,0,0,0,723.28,289.33Z" transform="translate(-82.81 -80.49)"/><path d="M741.78,295.38l3.54-.53A4.7,4.7,0,0,0,747,298a5.89,5.89,0,0,0,3.8,1.09,5.78,5.78,0,0,0,3.66-1,2.86,2.86,0,0,0,1.19-2.28,2.09,2.09,0,0,0-1-1.84,16.65,16.65,0,0,0-3.66-1.17,35.18,35.18,0,0,1-5.45-1.65,5.3,5.3,0,0,1-2.31-1.94,5,5,0,0,1-.78-2.73A5.14,5.14,0,0,1,743,284a5.67,5.67,0,0,1,1.76-1.92,7.61,7.61,0,0,1,2.28-1,11.37,11.37,0,0,1,3.09-.41,12.63,12.63,0,0,1,4.36.69,5.88,5.88,0,0,1,2.77,1.87,7,7,0,0,1,1.23,3.15l-3.49.46a3.68,3.68,0,0,0-1.38-2.45,5.19,5.19,0,0,0-3.23-.88,6,6,0,0,0-3.52.78,2.29,2.29,0,0,0-1.06,1.84,1.88,1.88,0,0,0,.44,1.21,3.14,3.14,0,0,0,1.37.92c.36.13,1.42.42,3.16.88a45.55,45.55,0,0,1,5.3,1.61,5.24,5.24,0,0,1,2.35,1.81,4.91,4.91,0,0,1,.86,3,5.64,5.64,0,0,1-1,3.25,6.77,6.77,0,0,1-3,2.36,11.47,11.47,0,0,1-4.46.83,10.19,10.19,0,0,1-6.27-1.65A7.6,7.6,0,0,1,741.78,295.38Z" transform="translate(-82.81 -80.49)"/><path d="M281.42,343.47V340.9a6.2,6.2,0,0,1-5.6,3,7.69,7.69,0,0,1-4.4-1.35,8.83,8.83,0,0,1-3.12-3.75,13.3,13.3,0,0,1-1.1-5.54,14.62,14.62,0,0,1,1-5.54,8,8,0,0,1,3-3.82,7.92,7.92,0,0,1,4.47-1.32,6.6,6.6,0,0,1,3.23.78,6.71,6.71,0,0,1,2.3,2v-10.1h3.37v28.15ZM270.69,333.3q0,3.92,1.62,5.85a4.84,4.84,0,0,0,3.83,1.94,4.74,4.74,0,0,0,3.78-1.85c1-1.24,1.56-3.12,1.56-5.66q0-4.18-1.58-6.14a4.84,4.84,0,0,0-3.91-2,4.68,4.68,0,0,0-3.78,1.88C271.19,328.62,270.69,330.59,270.69,333.3Z" transform="translate(-82.81 -80.49)"/><path d="M303.63,336.91l3.51.44a8.74,8.74,0,0,1-3.08,4.86,10.26,10.26,0,0,1-12.7-1c-1.72-1.84-2.58-4.41-2.58-7.73s.87-6.09,2.6-8a8.77,8.77,0,0,1,6.76-2.84,8.49,8.49,0,0,1,6.56,2.78q2.55,2.79,2.55,7.84c0,.2,0,.51,0,.92H292.29a8,8,0,0,0,1.87,5.15,5.5,5.5,0,0,0,4.19,1.78,5.09,5.09,0,0,0,3.18-1A6.62,6.62,0,0,0,303.63,336.91Zm-11.15-5.59h11.19a7,7,0,0,0-1.29-3.86,5.16,5.16,0,0,0-4.2-2,5.38,5.38,0,0,0-3.94,1.59A6.39,6.39,0,0,0,292.48,331.32Z" transform="translate(-82.81 -80.49)"/><path d="M310,337.39l3.36-.54A4.78,4.78,0,0,0,315,340a5.41,5.41,0,0,0,3.61,1.09,5.23,5.23,0,0,0,3.47-1,2.91,2.91,0,0,0,1.13-2.27,2.11,2.11,0,0,0-1-1.85,15.3,15.3,0,0,0-3.47-1.17,31,31,0,0,1-5.18-1.66,5.07,5.07,0,0,1-2.19-1.94,5.47,5.47,0,0,1-.13-5.26,5.56,5.56,0,0,1,1.67-1.93,7,7,0,0,1,2.16-1,10.27,10.27,0,0,1,2.93-.41,11.46,11.46,0,0,1,4.15.69,5.62,5.62,0,0,1,2.63,1.87,7.57,7.57,0,0,1,1.17,3.16l-3.32.46a3.77,3.77,0,0,0-1.31-2.46,4.76,4.76,0,0,0-3.07-.88,5.45,5.45,0,0,0-3.34.79,2.29,2.29,0,0,0-1,1.84,1.91,1.91,0,0,0,.42,1.21,2.94,2.94,0,0,0,1.3.92c.34.13,1.34.43,3,.89a40.4,40.4,0,0,1,5,1.6,4.88,4.88,0,0,1,3,4.77,5.88,5.88,0,0,1-1,3.26,6.41,6.41,0,0,1-2.86,2.36,10.16,10.16,0,0,1-4.22.84,9.21,9.21,0,0,1-5.95-1.66A7.7,7.7,0,0,1,310,337.39Z" transform="translate(-82.81 -80.49)"/><path d="M342,343.47V315.32h20v3.32H345.62v8.63h15.3v3.3h-15.3v9.58h17v3.32Z" transform="translate(-82.81 -80.49)"/><path d="M367.22,343.47V323.08h3.06V326a7.17,7.17,0,0,1,6.38-3.36,8.23,8.23,0,0,1,3.32.66,5.24,5.24,0,0,1,2.28,1.74,7,7,0,0,1,1.06,2.55,21.09,21.09,0,0,1,.18,3.36v12.54h-3.39v-12.4a9.31,9.31,0,0,0-.4-3.16,3.26,3.26,0,0,0-1.4-1.67,4.42,4.42,0,0,0-2.37-.63,5.43,5.43,0,0,0-3.75,1.41q-1.57,1.39-1.57,5.32v11.13Z" transform="translate(-82.81 -80.49)"/><path d="M396.13,340.38l.49,3.06a12.7,12.7,0,0,1-2.57.3,5.71,5.71,0,0,1-2.87-.59,3.32,3.32,0,0,1-1.43-1.57,12.39,12.39,0,0,1-.42-4.08V325.77h-2.49v-2.69h2.49V318l3.38-2.08v7.13h3.42v2.69h-3.42v11.92a6.19,6.19,0,0,0,.18,1.91,1.45,1.45,0,0,0,.58.67,2.31,2.31,0,0,0,1.17.25A11.1,11.1,0,0,0,396.13,340.38Z" transform="translate(-82.81 -80.49)"/><path d="M399.41,343.47V323.08h3v3.09a8.37,8.37,0,0,1,2.16-2.86,3.74,3.74,0,0,1,2.18-.69,6.54,6.54,0,0,1,3.49,1.11l-1.17,3.21a4.79,4.79,0,0,0-2.49-.75,3.25,3.25,0,0,0-2,.68,3.73,3.73,0,0,0-1.26,1.89,13.65,13.65,0,0,0-.57,4v10.67Z" transform="translate(-82.81 -80.49)"/><path d="M426,336.91l3.51.44a8.74,8.74,0,0,1-3.08,4.86,10.27,10.27,0,0,1-12.71-1c-1.71-1.84-2.57-4.41-2.57-7.73s.87-6.09,2.6-8a8.77,8.77,0,0,1,6.76-2.84,8.49,8.49,0,0,1,6.56,2.78q2.55,2.79,2.55,7.84c0,.2,0,.51,0,.92H414.69a8,8,0,0,0,1.87,5.15,5.5,5.5,0,0,0,4.19,1.78,5.09,5.09,0,0,0,3.18-1A6.62,6.62,0,0,0,426,336.91Zm-11.15-5.59h11.19a7,7,0,0,0-1.29-3.86,5.16,5.16,0,0,0-4.2-2,5.36,5.36,0,0,0-3.94,1.59A6.39,6.39,0,0,0,414.88,331.32Z" transform="translate(-82.81 -80.49)"/><path d="M433.8,351.29V323.08h3.09v2.65a7.55,7.55,0,0,1,2.48-2.33,6.64,6.64,0,0,1,3.33-.78,7.85,7.85,0,0,1,4.53,1.34,8.17,8.17,0,0,1,3,3.8,14.94,14.94,0,0,1-.1,11,8.48,8.48,0,0,1-3.21,3.84,8.11,8.11,0,0,1-4.42,1.34,6.39,6.39,0,0,1-3-.73,6.81,6.81,0,0,1-2.21-1.85v9.93Zm3.08-17.9q0,3.94,1.56,5.82a4.76,4.76,0,0,0,3.79,1.88,4.89,4.89,0,0,0,3.88-1.95q1.61-2,1.61-6,0-3.9-1.58-5.83a4.69,4.69,0,0,0-3.76-1.94,4.85,4.85,0,0,0-3.84,2.06A9.38,9.38,0,0,0,436.88,333.39Z" transform="translate(-82.81 -80.49)"/><path d="M455.25,343.47V323.08h3.06v3.09a8.37,8.37,0,0,1,2.15-2.86,3.75,3.75,0,0,1,2.19-.69,6.59,6.59,0,0,1,3.49,1.11L465,326.94a4.79,4.79,0,0,0-2.49-.75,3.2,3.2,0,0,0-2,.68,3.75,3.75,0,0,0-1.27,1.89,13.65,13.65,0,0,0-.56,4v10.67Z" transform="translate(-82.81 -80.49)"/><path d="M468.17,319.3v-4h3.4v4Zm0,24.17V323.08h3.4v20.39Z" transform="translate(-82.81 -80.49)"/><path d="M475.38,337.39l3.36-.54a4.82,4.82,0,0,0,1.57,3.15,5.43,5.43,0,0,0,3.62,1.09,5.23,5.23,0,0,0,3.47-1,2.91,2.91,0,0,0,1.13-2.27,2.11,2.11,0,0,0-1-1.85,15.3,15.3,0,0,0-3.47-1.17,31,31,0,0,1-5.18-1.66,5,5,0,0,1-2.19-1.94,5.17,5.17,0,0,1-.74-2.74,5.3,5.3,0,0,1,.61-2.52,5.36,5.36,0,0,1,1.67-1.93,6.91,6.91,0,0,1,2.16-1,10.27,10.27,0,0,1,2.93-.41,11.44,11.44,0,0,1,4.14.69,5.65,5.65,0,0,1,2.64,1.87,7.43,7.43,0,0,1,1.16,3.16l-3.32.46a3.73,3.73,0,0,0-1.31-2.46,4.71,4.71,0,0,0-3.06-.88,5.45,5.45,0,0,0-3.34.79,2.29,2.29,0,0,0-1,1.84,2,2,0,0,0,.41,1.21,3,3,0,0,0,1.31.92c.34.13,1.33.43,3,.89a39.83,39.83,0,0,1,5,1.6,4.87,4.87,0,0,1,3,4.77,5.88,5.88,0,0,1-1,3.26,6.41,6.41,0,0,1-2.86,2.36,10.17,10.17,0,0,1-4.23.84,9.23,9.23,0,0,1-5.95-1.66A7.74,7.74,0,0,1,475.38,337.39Z" transform="translate(-82.81 -80.49)"/><path d="M509.77,336.91l3.51.44a8.73,8.73,0,0,1-3.07,4.86,9.16,9.16,0,0,1-5.74,1.73,9.06,9.06,0,0,1-7-2.76c-1.72-1.84-2.58-4.41-2.58-7.73s.87-6.09,2.61-8a8.75,8.75,0,0,1,6.75-2.84,8.52,8.52,0,0,1,6.57,2.78c1.7,1.86,2.54,4.47,2.54,7.84,0,.2,0,.51,0,.92H498.43a8,8,0,0,0,1.87,5.15,5.52,5.52,0,0,0,4.19,1.78,5.12,5.12,0,0,0,3.19-1A6.54,6.54,0,0,0,509.77,336.91Zm-11.15-5.59h11.19a7,7,0,0,0-1.28-3.86,5.18,5.18,0,0,0-4.21-2,5.38,5.38,0,0,0-3.94,1.59A6.44,6.44,0,0,0,498.62,331.32Z" transform="translate(-82.81 -80.49)"/><path d="M516.19,337.39l3.35-.54a4.78,4.78,0,0,0,1.58,3.15,5.42,5.42,0,0,0,3.61,1.09,5.21,5.21,0,0,0,3.47-1,2.89,2.89,0,0,0,1.14-2.27,2.14,2.14,0,0,0-1-1.85,15.45,15.45,0,0,0-3.48-1.17,31,31,0,0,1-5.18-1.66,5.07,5.07,0,0,1-2.19-1.94,5.47,5.47,0,0,1-.13-5.26A5.56,5.56,0,0,1,519,324a7,7,0,0,1,2.16-1,10.29,10.29,0,0,1,2.94-.41,11.44,11.44,0,0,1,4.14.69,5.56,5.56,0,0,1,2.63,1.87,7.31,7.31,0,0,1,1.17,3.16l-3.32.46a3.73,3.73,0,0,0-1.31-2.46,4.76,4.76,0,0,0-3.07-.88,5.45,5.45,0,0,0-3.34.79,2.31,2.31,0,0,0-1,1.84,1.91,1.91,0,0,0,.42,1.21,3,3,0,0,0,1.3.92c.34.13,1.34.43,3,.89a40.4,40.4,0,0,1,5,1.6,4.91,4.91,0,0,1,3.05,4.77,5.89,5.89,0,0,1-1,3.26A6.43,6.43,0,0,1,529,343.1a10.24,10.24,0,0,1-4.23.84,9.23,9.23,0,0,1-6-1.66A7.65,7.65,0,0,1,516.19,337.39Z" transform="translate(-82.81 -80.49)"/><path d="M560.6,343.47V340.9a6.22,6.22,0,0,1-5.61,3,7.77,7.77,0,0,1-4.41-1.35,8.81,8.81,0,0,1-3.11-3.75,13.3,13.3,0,0,1-1.1-5.54,14.62,14.62,0,0,1,1-5.54,8.09,8.09,0,0,1,3-3.82,7.92,7.92,0,0,1,4.47-1.32,6.6,6.6,0,0,1,3.23.78,6.71,6.71,0,0,1,2.3,2v-10.1h3.38v28.15ZM549.86,333.3q0,3.92,1.62,5.85a4.86,4.86,0,0,0,3.83,1.94,4.73,4.73,0,0,0,3.78-1.85c1-1.24,1.56-3.12,1.56-5.66q0-4.18-1.58-6.14a4.84,4.84,0,0,0-3.91-2,4.68,4.68,0,0,0-3.78,1.88C550.36,328.62,549.86,330.59,549.86,333.3Z" transform="translate(-82.81 -80.49)"/><path d="M582.8,336.91l3.51.44a8.69,8.69,0,0,1-3.08,4.86,10.26,10.26,0,0,1-12.7-1c-1.72-1.84-2.58-4.41-2.58-7.73s.87-6.09,2.61-8a8.73,8.73,0,0,1,6.75-2.84,8.52,8.52,0,0,1,6.57,2.78q2.54,2.79,2.54,7.84c0,.2,0,.51,0,.92H571.46a8,8,0,0,0,1.87,5.15,5.52,5.52,0,0,0,4.19,1.78,5.12,5.12,0,0,0,3.19-1A6.61,6.61,0,0,0,582.8,336.91Zm-11.15-5.59h11.19a7,7,0,0,0-1.28-3.86,5.2,5.2,0,0,0-4.21-2,5.36,5.36,0,0,0-3.94,1.59A6.39,6.39,0,0,0,571.65,331.32Z" transform="translate(-82.81 -80.49)"/><path d="M601.74,343.47V315.32h10.43a24.67,24.67,0,0,1,4.21.27,8.35,8.35,0,0,1,3.42,1.31,7,7,0,0,1,2.21,2.72,9.31,9.31,0,0,1-1.4,9.92c-1.5,1.66-4.2,2.49-8.12,2.49H605.4v11.44Zm3.66-14.76h7.15c2.37,0,4-.45,5-1.35a4.84,4.84,0,0,0,1.49-3.78,5.21,5.21,0,0,0-.88-3,4.1,4.1,0,0,0-2.31-1.66,15.75,15.75,0,0,0-3.41-.25H605.4Z" transform="translate(-82.81 -80.49)"/><path d="M627,343.47V323.08h3.06v3.09a8.37,8.37,0,0,1,2.15-2.86,3.75,3.75,0,0,1,2.19-.69,6.59,6.59,0,0,1,3.49,1.11l-1.17,3.21a4.79,4.79,0,0,0-2.49-.75,3.2,3.2,0,0,0-2,.68,3.69,3.69,0,0,0-1.27,1.89,13.65,13.65,0,0,0-.56,4v10.67Z" transform="translate(-82.81 -80.49)"/><path d="M638.68,333.28q0-5.67,3.09-8.4a9.25,9.25,0,0,1,6.31-2.26,8.93,8.93,0,0,1,6.75,2.75,10.61,10.61,0,0,1,2.62,7.62,13.73,13.73,0,0,1-1.16,6.19,8.29,8.29,0,0,1-3.38,3.51,9.71,9.71,0,0,1-4.83,1.25,8.94,8.94,0,0,1-6.81-2.75Q638.67,338.45,638.68,333.28Zm3.49,0q0,3.92,1.68,5.86a5.52,5.52,0,0,0,8.43,0q1.68-2,1.68-6a8.5,8.5,0,0,0-1.69-5.73,5.53,5.53,0,0,0-8.42,0Q642.17,329.35,642.17,333.28Z" transform="translate(-82.81 -80.49)"/><path d="M659.17,343.47l7.32-10.6-6.77-9.79H664l3.08,4.78c.57.91,1,1.67,1.39,2.29q.83-1.27,1.53-2.25l3.38-4.82h4l-6.92,9.6,7.45,10.79h-4.17l-4.11-6.33-1.1-1.71-5.26,8Z" transform="translate(-82.81 -80.49)"/><path d="M680.77,319.3v-4h3.4v4Zm0,24.17V323.08h3.4v20.39Z" transform="translate(-82.81 -80.49)"/><path d="M689.33,343.47V323.08h3v2.86a7.25,7.25,0,0,1,2.51-2.41,6.92,6.92,0,0,1,3.57-.91,6.45,6.45,0,0,1,3.64.94,5,5,0,0,1,2,2.63,7.15,7.15,0,0,1,6.18-3.57,6,6,0,0,1,4.59,1.68q1.61,1.68,1.6,5.17v14H713.1V330.63a9.63,9.63,0,0,0-.33-3,2.85,2.85,0,0,0-1.19-1.47,3.71,3.71,0,0,0-2-.56A4.71,4.71,0,0,0,706,327a6.41,6.41,0,0,0-1.4,4.59v11.84h-3.39V330.22a5.91,5.91,0,0,0-.83-3.45,3.12,3.12,0,0,0-2.72-1.16,4.9,4.9,0,0,0-2.65.77,4.3,4.3,0,0,0-1.76,2.25,12.73,12.73,0,0,0-.55,4.26v10.58Z" transform="translate(-82.81 -80.49)"/><path d="M721.54,319.3v-4h3.39v4Zm0,24.17V323.08h3.39v20.39Z" transform="translate(-82.81 -80.49)"/><path d="M737.52,340.38l.49,3.06a12.7,12.7,0,0,1-2.57.3,5.71,5.71,0,0,1-2.87-.59,3.32,3.32,0,0,1-1.43-1.57,12.48,12.48,0,0,1-.41-4.08V325.77h-2.49v-2.69h2.49V318L734.1,316v7.13h3.42v2.69H734.1v11.92a6.19,6.19,0,0,0,.18,1.91,1.45,1.45,0,0,0,.58.67,2.31,2.31,0,0,0,1.17.25A11.1,11.1,0,0,0,737.52,340.38Z" transform="translate(-82.81 -80.49)"/><path d="M754.55,336.91l3.51.44a8.73,8.73,0,0,1-3.07,4.86,9.16,9.16,0,0,1-5.74,1.73,9.06,9.06,0,0,1-7-2.76c-1.72-1.84-2.57-4.41-2.57-7.73s.86-6.09,2.6-8a8.75,8.75,0,0,1,6.75-2.84,8.52,8.52,0,0,1,6.57,2.78c1.7,1.86,2.54,4.47,2.54,7.84,0,.2,0,.51,0,.92H743.21a8,8,0,0,0,1.87,5.15,5.52,5.52,0,0,0,4.19,1.78,5.1,5.1,0,0,0,3.19-1A6.54,6.54,0,0,0,754.55,336.91Zm-11.15-5.59h11.19a7,7,0,0,0-1.28-3.86,5.18,5.18,0,0,0-4.21-2,5.38,5.38,0,0,0-3.94,1.59A6.44,6.44,0,0,0,743.4,331.32Zm3.66-10.78,2.51-5.37H754l-4.15,5.37Z" transform="translate(-82.81 -80.49)"/></g></g></g></svg>